<?xml version="1.0" encoding="utf-8" standalone="no"?>
<!DOCTYPE svg PUBLIC "-//W3C//DTD SVG 1.1//EN"
  "http://www.w3.org/Graphics/SVG/1.1/DTD/svg11.dtd">
<svg xmlns:xlink="http://www.w3.org/1999/xlink" width="247.475pt" height="212.049413pt" viewBox="0 0 247.475 212.049413" xmlns="http://www.w3.org/2000/svg" version="1.1">
 <metadata>
  <rdf:RDF xmlns:dc="http://purl.org/dc/elements/1.1/" xmlns:cc="http://creativecommons.org/ns#" xmlns:rdf="http://www.w3.org/1999/02/22-rdf-syntax-ns#">
   <cc:Work>
    <dc:type rdf:resource="http://purl.org/dc/dcmitype/StillImage"/>
    <dc:date>2026-05-23T13:11:57.510237</dc:date>
    <dc:format>image/svg+xml</dc:format>
    <dc:creator>
     <cc:Agent>
      <dc:title>Matplotlib v3.10.8, https://matplotlib.org/</dc:title>
     </cc:Agent>
    </dc:creator>
   </cc:Work>
  </rdf:RDF>
 </metadata>
 <defs>
  <style type="text/css">*{stroke-linejoin: round; stroke-linecap: butt}</style>
 </defs>
 <g id="figure_1">
  <g id="patch_1">
   <path d="M 0 212.049413 
L 247.475 212.049413 
L 247.475 0 
L 0 0 
z
" style="fill: #ffffff"/>
  </g>
  <g id="axes_1">
   <g id="patch_2">
    <path d="M 196.46 107.793 
C 196.46 95.366302 194.012212 83.060438 189.25672 71.579667 
C 184.501229 60.098895 177.530517 49.666488 168.743515 40.879485 
C 159.956512 32.092483 149.524105 25.121771 138.043333 20.36628 
C 126.562562 15.610788 114.256698 13.163 101.83 13.163 
C 89.403302 13.163 77.097438 15.610788 65.616667 20.36628 
C 54.135895 25.121771 43.703488 32.092483 34.916485 40.879485 
C 26.129483 49.666488 19.158771 60.098895 14.40328 71.579667 
C 9.647788 83.060438 7.2 95.366302 7.2 107.793 
C 7.2 120.219698 9.647788 132.525562 14.40328 144.006333 
C 19.158771 155.487105 26.129483 165.919512 34.916485 174.706515 
C 43.703488 183.493517 54.135895 190.464229 65.616667 195.21972 
C 77.097438 199.975212 89.403302 202.423 101.83 202.423 
C 114.256698 202.423 126.562562 199.975212 138.043333 195.21972 
C 149.524105 190.464229 159.956512 183.493517 168.743515 174.706515 
C 177.530517 165.919512 184.501229 155.487105 189.25672 144.006333 
C 194.012212 132.525562 196.46 120.219698 196.46 107.793 
M 101.83 107.793 
C 101.83 107.793 101.83 107.793 101.83 107.793 
C 101.83 107.793 101.83 107.793 101.83 107.793 
C 101.83 107.793 101.83 107.793 101.83 107.793 
C 101.83 107.793 101.83 107.793 101.83 107.793 
C 101.83 107.793 101.83 107.793 101.83 107.793 
C 101.83 107.793 101.83 107.793 101.83 107.793 
C 101.83 107.793 101.83 107.793 101.83 107.793 
C 101.83 107.793 101.83 107.793 101.83 107.793 
C 101.83 107.793 101.83 107.793 101.83 107.793 
C 101.83 107.793 101.83 107.793 101.83 107.793 
C 101.83 107.793 101.83 107.793 101.83 107.793 
C 101.83 107.793 101.83 107.793 101.83 107.793 
C 101.83 107.793 101.83 107.793 101.83 107.793 
C 101.83 107.793 101.83 107.793 101.83 107.793 
C 101.83 107.793 101.83 107.793 101.83 107.793 
C 101.83 107.793 101.83 107.793 101.83 107.793 
z
" style="fill: #ffffff"/>
   </g>
   <g id="patch_3">
    <path d="M 135.306693 107.793 
L 60.686522 36.530405 
L 80.474452 144.781893 
z
" clip-path="url(#p948006f71c)" style="fill: #7a9e9f; opacity: 0.2; stroke: #7a9e9f; stroke-linejoin: miter"/>
   </g>
   <g id="patch_4">
    <path d="M 173.16933 107.793 
L 83.995168 76.902164 
L 89.940112 128.386891 
z
" clip-path="url(#p948006f71c)" style="fill: #ce7e7e; opacity: 0.12; stroke: #ce7e7e; stroke-linejoin: miter"/>
   </g>
   <g id="matplotlib.axis_1">
    <g id="xtick_1">
     <g id="line2d_1">
      <path d="M 101.83 107.793 
L 196.46 107.793 
" clip-path="url(#p948006f71c)" style="fill: none; stroke: #b0b0b0; stroke-width: 0.8; stroke-linecap: square"/>
     </g>
     <g id="text_1">
      <text style="font-size: 7.5px; font-family: 'SimSun', 'STSong', 'FangSong', 'SimHei', 'Microsoft YaHei', 'DejaVu Sans', sans-serif; text-anchor: middle" x="209.96" y="110.268586" transform="rotate(-0 209.96 110.268586)">自发自用比例</text>
     </g>
    </g>
    <g id="xtick_2">
     <g id="line2d_2">
      <path d="M 101.83 107.793 
L 54.515 25.841016 
" clip-path="url(#p948006f71c)" style="fill: none; stroke: #b0b0b0; stroke-width: 0.8; stroke-linecap: square"/>
     </g>
     <g id="text_2">
      <text style="font-size: 7.5px; font-family: 'SimSun', 'STSong', 'FangSong', 'SimHei', 'Microsoft YaHei', 'DejaVu Sans', sans-serif; text-anchor: middle" x="47.765" y="16.595962" transform="rotate(-0 47.765 16.595962)">总用电绿电比例</text>
     </g>
    </g>
    <g id="xtick_3">
     <g id="line2d_3">
      <path d="M 101.83 107.793 
L 54.515 189.744984 
" clip-path="url(#p948006f71c)" style="fill: none; stroke: #b0b0b0; stroke-width: 0.8; stroke-linecap: square"/>
     </g>
     <g id="text_3">
      <text style="font-size: 7.5px; font-family: 'SimSun', 'STSong', 'FangSong', 'SimHei', 'Microsoft YaHei', 'DejaVu Sans', sans-serif; text-anchor: middle" x="47.765" y="203.882616" transform="rotate(-0 47.765 203.882616)">上网电量比例</text>
     </g>
    </g>
   </g>
   <g id="matplotlib.axis_2">
    <g id="ytick_1">
     <g id="line2d_4">
      <path d="M 113.719888 107.793 
C 113.719888 106.231634 113.412333 104.685451 112.814824 103.242937 
C 112.217316 101.800423 111.341473 100.489632 110.237421 99.385579 
C 109.133368 98.281527 107.822577 97.405684 106.380063 96.808176 
C 104.937549 96.210667 103.391366 95.903112 101.83 95.903112 
C 100.268634 95.903112 98.722451 96.210667 97.279937 96.808176 
C 95.837423 97.405684 94.526632 98.281527 93.422579 99.385579 
C 92.318527 100.489632 91.442684 101.800423 90.845176 103.242937 
C 90.247667 104.685451 89.940112 106.231634 89.940112 107.793 
C 89.940112 109.354366 90.247667 110.900549 90.845176 112.343063 
C 91.442684 113.785577 92.318527 115.096368 93.422579 116.200421 
C 94.526632 117.304473 95.837423 118.180316 97.279937 118.777824 
C 98.722451 119.375333 100.268634 119.682888 101.83 119.682888 
C 103.391366 119.682888 104.937549 119.375333 106.380063 118.777824 
C 107.822577 118.180316 109.133368 117.304473 110.237421 116.200421 
C 111.341473 115.096368 112.217316 113.785577 112.814824 112.343063 
C 113.412333 110.900549 113.719888 109.354366 113.719888 107.793 
" clip-path="url(#p948006f71c)" style="fill: none; stroke: #b0b0b0; stroke-width: 0.8; stroke-linecap: square"/>
     </g>
     <g id="text_4">
      <text style="font-size: 8px; font-family: 'SimSun', 'STSong', 'FangSong', 'SimHei', 'Microsoft YaHei', 'DejaVu Sans', sans-serif; text-anchor: start" x="112.814824" y="102.211687" transform="rotate(-0 112.814824 102.211687)">0.1</text>
     </g>
    </g>
    <g id="ytick_2">
     <g id="line2d_5">
      <path d="M 125.609777 107.793 
C 125.609777 104.670268 124.994667 101.577901 123.799649 98.692873 
C 122.604631 95.807846 120.852946 93.186263 118.644841 90.978159 
C 116.436737 88.770054 113.815154 87.018369 110.930127 85.823351 
C 108.045099 84.628333 104.952732 84.013223 101.83 84.013223 
C 98.707268 84.013223 95.614901 84.628333 92.729873 85.823351 
C 89.844846 87.018369 87.223263 88.770054 85.015159 90.978159 
C 82.807054 93.186263 81.055369 95.807846 79.860351 98.692873 
C 78.665333 101.577901 78.050223 104.670268 78.050223 107.793 
C 78.050223 110.915732 78.665333 114.008099 79.860351 116.893127 
C 81.055369 119.778154 82.807054 122.399737 85.015159 124.607841 
C 87.223263 126.815946 89.844846 128.567631 92.729873 129.762649 
C 95.614901 130.957667 98.707268 131.572777 101.83 131.572777 
C 104.952732 131.572777 108.045099 130.957667 110.930127 129.762649 
C 113.815154 128.567631 116.436737 126.815946 118.644841 124.607841 
C 120.852946 122.399737 122.604631 119.778154 123.799649 116.893127 
C 124.994667 114.008099 125.609777 110.915732 125.609777 107.793 
" clip-path="url(#p948006f71c)" style="fill: none; stroke: #b0b0b0; stroke-width: 0.8; stroke-linecap: square"/>
     </g>
     <g id="text_5">
      <text style="font-size: 8px; font-family: 'SimSun', 'STSong', 'FangSong', 'SimHei', 'Microsoft YaHei', 'DejaVu Sans', sans-serif; text-anchor: start" x="123.799649" y="97.661623" transform="rotate(-0 123.799649 97.661623)">0.2</text>
     </g>
    </g>
    <g id="ytick_3">
     <g id="line2d_6">
      <path d="M 137.499665 107.793 
C 137.499665 103.108903 136.577 98.470352 134.784473 94.14281 
C 132.991947 89.815268 130.364419 85.882895 127.052262 82.570738 
C 123.740105 79.258581 119.807732 76.631053 115.48019 74.838527 
C 111.152648 73.046 106.514097 72.123335 101.83 72.123335 
C 97.145903 72.123335 92.507352 73.046 88.17981 74.838527 
C 83.852268 76.631053 79.919895 79.258581 76.607738 82.570738 
C 73.295581 85.882895 70.668053 89.815268 68.875527 94.14281 
C 67.083 98.470352 66.160335 103.108903 66.160335 107.793 
C 66.160335 112.477097 67.083 117.115648 68.875527 121.44319 
C 70.668053 125.770732 73.295581 129.703105 76.607738 133.015262 
C 79.919895 136.327419 83.852268 138.954947 88.17981 140.747473 
C 92.507352 142.54 97.145903 143.462665 101.83 143.462665 
C 106.514097 143.462665 111.152648 142.54 115.48019 140.747473 
C 119.807732 138.954947 123.740105 136.327419 127.052262 133.015262 
C 130.364419 129.703105 132.991947 125.770732 134.784473 121.44319 
C 136.577 117.115648 137.499665 112.477097 137.499665 107.793 
" clip-path="url(#p948006f71c)" style="fill: none; stroke: #b0b0b0; stroke-width: 0.8; stroke-linecap: square"/>
     </g>
     <g id="text_6">
      <text style="font-size: 8px; font-family: 'SimSun', 'STSong', 'FangSong', 'SimHei', 'Microsoft YaHei', 'DejaVu Sans', sans-serif; text-anchor: start" x="134.784473" y="93.11156" transform="rotate(-0 134.784473 93.11156)">0.3</text>
     </g>
    </g>
    <g id="ytick_4">
     <g id="line2d_7">
      <path d="M 149.389553 107.793 
C 149.389553 101.547537 148.159333 95.362803 145.769298 89.592747 
C 143.379263 83.822691 139.875892 78.579527 135.459683 74.163317 
C 131.043473 69.747108 125.800309 66.243737 120.030253 63.853702 
C 114.260197 61.463667 108.075463 60.233447 101.83 60.233447 
C 95.584537 60.233447 89.399803 61.463667 83.629747 63.853702 
C 77.859691 66.243737 72.616527 69.747108 68.200317 74.163317 
C 63.784108 78.579527 60.280737 83.822691 57.890702 89.592747 
C 55.500667 95.362803 54.270447 101.547537 54.270447 107.793 
C 54.270447 114.038463 55.500667 120.223197 57.890702 125.993253 
C 60.280737 131.763309 63.784108 137.006473 68.200317 141.422683 
C 72.616527 145.838892 77.859691 149.342263 83.629747 151.732298 
C 89.399803 154.122333 95.584537 155.352553 101.83 155.352553 
C 108.075463 155.352553 114.260197 154.122333 120.030253 151.732298 
C 125.800309 149.342263 131.043473 145.838892 135.459683 141.422683 
C 139.875892 137.006473 143.379263 131.763309 145.769298 125.993253 
C 148.159333 120.223197 149.389553 114.038463 149.389553 107.793 
" clip-path="url(#p948006f71c)" style="fill: none; stroke: #b0b0b0; stroke-width: 0.8; stroke-linecap: square"/>
     </g>
     <g id="text_7">
      <text style="font-size: 8px; font-family: 'SimSun', 'STSong', 'FangSong', 'SimHei', 'Microsoft YaHei', 'DejaVu Sans', sans-serif; text-anchor: start" x="145.769298" y="88.561497" transform="rotate(-0 145.769298 88.561497)">0.4</text>
     </g>
    </g>
    <g id="ytick_5">
     <g id="line2d_8">
      <path d="M 161.279442 107.793 
C 161.279442 99.986171 159.741666 92.255253 156.754122 85.042684 
C 153.766578 77.830114 149.387365 71.276159 143.867103 65.755897 
C 138.346841 60.235635 131.792886 55.856422 124.580316 52.868878 
C 117.367747 49.881334 109.636829 48.343558 101.83 48.343558 
C 94.023171 48.343558 86.292253 49.881334 79.079684 52.868878 
C 71.867114 55.856422 65.313159 60.235635 59.792897 65.755897 
C 54.272635 71.276159 49.893422 77.830114 46.905878 85.042684 
C 43.918334 92.255253 42.380558 99.986171 42.380558 107.793 
C 42.380558 115.599829 43.918334 123.330747 46.905878 130.543316 
C 49.893422 137.755886 54.272635 144.309841 59.792897 149.830103 
C 65.313159 155.350365 71.867114 159.729578 79.079684 162.717122 
C 86.292253 165.704666 94.023171 167.242442 101.83 167.242442 
C 109.636829 167.242442 117.367747 165.704666 124.580316 162.717122 
C 131.792886 159.729578 138.346841 155.350365 143.867103 149.830103 
C 149.387365 144.309841 153.766578 137.755886 156.754122 130.543316 
C 159.741666 123.330747 161.279442 115.599829 161.279442 107.793 
" clip-path="url(#p948006f71c)" style="fill: none; stroke: #b0b0b0; stroke-width: 0.8; stroke-linecap: square"/>
     </g>
     <g id="text_8">
      <text style="font-size: 8px; font-family: 'SimSun', 'STSong', 'FangSong', 'SimHei', 'Microsoft YaHei', 'DejaVu Sans', sans-serif; text-anchor: start" x="156.754122" y="84.011434" transform="rotate(-0 156.754122 84.011434)">0.5</text>
     </g>
    </g>
    <g id="ytick_6">
     <g id="line2d_9">
      <path d="M 173.16933 107.793 
C 173.16933 98.424805 171.324 89.147704 167.738947 80.49262 
C 164.153894 71.837537 158.898838 63.97279 152.274524 57.348476 
C 145.65021 50.724162 137.785463 45.469106 129.13038 41.884053 
C 120.475296 38.299 111.198195 36.45367 101.83 36.45367 
C 92.461805 36.45367 83.184704 38.299 74.52962 41.884053 
C 65.874537 45.469106 58.00979 50.724162 51.385476 57.348476 
C 44.761162 63.97279 39.506106 71.837537 35.921053 80.49262 
C 32.336 89.147704 30.49067 98.424805 30.49067 107.793 
C 30.49067 117.161195 32.336 126.438296 35.921053 135.09338 
C 39.506106 143.748463 44.761162 151.61321 51.385476 158.237524 
C 58.00979 164.861838 65.874537 170.116894 74.52962 173.701947 
C 83.184704 177.287 92.461805 179.13233 101.83 179.13233 
C 111.198195 179.13233 120.475296 177.287 129.13038 173.701947 
C 137.785463 170.116894 145.65021 164.861838 152.274524 158.237524 
C 158.898838 151.61321 164.153894 143.748463 167.738947 135.09338 
C 171.324 126.438296 173.16933 117.161195 173.16933 107.793 
" clip-path="url(#p948006f71c)" style="fill: none; stroke: #b0b0b0; stroke-width: 0.8; stroke-linecap: square"/>
     </g>
     <g id="text_9">
      <text style="font-size: 8px; font-family: 'SimSun', 'STSong', 'FangSong', 'SimHei', 'Microsoft YaHei', 'DejaVu Sans', sans-serif; text-anchor: start" x="167.738947" y="79.46137" transform="rotate(-0 167.738947 79.46137)">0.6</text>
     </g>
    </g>
    <g id="ytick_7">
     <g id="line2d_10">
      <path d="M 185.059218 107.793 
C 185.059218 96.863439 182.906333 86.040155 178.723771 75.942557 
C 174.541209 65.84496 168.410311 56.669422 160.681945 48.941055 
C 152.953578 41.212689 143.77804 35.081791 133.680443 30.899229 
C 123.582845 26.716667 112.759561 24.563782 101.83 24.563782 
C 90.900439 24.563782 80.077155 26.716667 69.979557 30.899229 
C 59.88196 35.081791 50.706422 41.212689 42.978055 48.941055 
C 35.249689 56.669422 29.118791 65.84496 24.936229 75.942557 
C 20.753667 86.040155 18.600782 96.863439 18.600782 107.793 
C 18.600782 118.722561 20.753667 129.545845 24.936229 139.643443 
C 29.118791 149.74104 35.249689 158.916578 42.978055 166.644945 
C 50.706422 174.373311 59.88196 180.504209 69.979557 184.686771 
C 80.077155 188.869333 90.900439 191.022218 101.83 191.022218 
C 112.759561 191.022218 123.582845 188.869333 133.680443 184.686771 
C 143.77804 180.504209 152.953578 174.373311 160.681945 166.644945 
C 168.410311 158.916578 174.541209 149.74104 178.723771 139.643443 
C 182.906333 129.545845 185.059218 118.722561 185.059218 107.793 
" clip-path="url(#p948006f71c)" style="fill: none; stroke: #b0b0b0; stroke-width: 0.8; stroke-linecap: square"/>
     </g>
     <g id="text_10">
      <text style="font-size: 8px; font-family: 'SimSun', 'STSong', 'FangSong', 'SimHei', 'Microsoft YaHei', 'DejaVu Sans', sans-serif; text-anchor: start" x="178.723771" y="74.911307" transform="rotate(-0 178.723771 74.911307)">0.7</text>
     </g>
    </g>
   </g>
   <g id="line2d_11">
    <path d="M 135.306693 107.793 
L 60.686522 36.530405 
L 80.474452 144.781893 
L 135.306693 107.793 
" clip-path="url(#p948006f71c)" style="fill: none; stroke: #7a9e9f; stroke-width: 1.2; stroke-linecap: square"/>
    <defs>
     <path id="m4eb538af62" d="M 0 1.5 
C 0.397805 1.5 0.77937 1.341951 1.06066 1.06066 
C 1.341951 0.77937 1.5 0.397805 1.5 0 
C 1.5 -0.397805 1.341951 -0.77937 1.06066 -1.06066 
C 0.77937 -1.341951 0.397805 -1.5 0 -1.5 
C -0.397805 -1.5 -0.77937 -1.341951 -1.06066 -1.06066 
C -1.341951 -0.77937 -1.5 -0.397805 -1.5 0 
C -1.5 0.397805 -1.341951 0.77937 -1.06066 1.06066 
C -0.77937 1.341951 -0.397805 1.5 0 1.5 
z
" style="stroke: #7a9e9f"/>
    </defs>
    <g clip-path="url(#p948006f71c)">
     <use xlink:href="#m4eb538af62" x="135.306693" y="107.793" style="fill: #7a9e9f; stroke: #7a9e9f"/>
     <use xlink:href="#m4eb538af62" x="60.686522" y="36.530405" style="fill: #7a9e9f; stroke: #7a9e9f"/>
     <use xlink:href="#m4eb538af62" x="80.474452" y="144.781893" style="fill: #7a9e9f; stroke: #7a9e9f"/>
     <use xlink:href="#m4eb538af62" x="135.306693" y="107.793" style="fill: #7a9e9f; stroke: #7a9e9f"/>
    </g>
   </g>
   <g id="line2d_12">
    <path d="M 173.16933 107.793 
L 83.995168 76.902164 
L 89.940112 128.386891 
L 173.16933 107.793 
" clip-path="url(#p948006f71c)" style="fill: none; stroke-dasharray: 4.44,1.92; stroke-dashoffset: 0; stroke: #ce7e7e; stroke-width: 1.2"/>
    <defs>
     <path id="mb4c76cc09a" d="M -1.5 1.5 
L 1.5 1.5 
L 1.5 -1.5 
L -1.5 -1.5 
z
" style="stroke: #ce7e7e; stroke-linejoin: miter"/>
    </defs>
    <g clip-path="url(#p948006f71c)">
     <use xlink:href="#mb4c76cc09a" x="173.16933" y="107.793" style="fill: #ce7e7e; stroke: #ce7e7e; stroke-linejoin: miter"/>
     <use xlink:href="#mb4c76cc09a" x="83.995168" y="76.902164" style="fill: #ce7e7e; stroke: #ce7e7e; stroke-linejoin: miter"/>
     <use xlink:href="#mb4c76cc09a" x="89.940112" y="128.386891" style="fill: #ce7e7e; stroke: #ce7e7e; stroke-linejoin: miter"/>
     <use xlink:href="#mb4c76cc09a" x="173.16933" y="107.793" style="fill: #ce7e7e; stroke: #ce7e7e; stroke-linejoin: miter"/>
    </g>
   </g>
   <g id="patch_5">
    <path d="M 196.46 107.793 
C 196.46 95.366302 194.012212 83.060438 189.25672 71.579667 
C 184.501229 60.098895 177.530517 49.666488 168.743515 40.879485 
C 159.956512 32.092483 149.524105 25.121771 138.043333 20.36628 
C 126.562562 15.610788 114.256698 13.163 101.83 13.163 
C 89.403302 13.163 77.097438 15.610788 65.616667 20.36628 
C 54.135895 25.121771 43.703488 32.092483 34.916485 40.879485 
C 26.129483 49.666488 19.158771 60.098895 14.40328 71.579667 
C 9.647788 83.060438 7.2 95.366302 7.2 107.793 
C 7.2 120.219698 9.647788 132.525562 14.40328 144.006333 
C 19.158771 155.487105 26.129483 165.919512 34.916485 174.706515 
C 43.703488 183.493517 54.135895 190.464229 65.616667 195.21972 
C 77.097438 199.975212 89.403302 202.423 101.83 202.423 
C 114.256698 202.423 126.562562 199.975212 138.043333 195.21972 
C 149.524105 190.464229 159.956512 183.493517 168.743515 174.706515 
C 177.530517 165.919512 184.501229 155.487105 189.25672 144.006333 
C 194.012212 132.525562 196.46 120.219698 196.46 107.793 
" style="fill: none; stroke: #000000; stroke-width: 0.6; stroke-linejoin: miter; stroke-linecap: square"/>
   </g>
   <g id="text_11">
    <text style="font-size: 7px; font-family: 'SimSun', 'STSong', 'FangSong', 'SimHei', 'Microsoft YaHei', 'DejaVu Sans', sans-serif; text-anchor: middle; fill: #b06060" x="135.306693" y="112.796906" transform="rotate(-0 135.306693 112.796906)">28.2%</text>
   </g>
   <g id="text_12">
    <text style="font-size: 7px; font-family: 'SimSun', 'STSong', 'FangSong', 'SimHei', 'Microsoft YaHei', 'DejaVu Sans', sans-serif; text-anchor: middle; fill: #3a6b6b" x="60.686522" y="35.628062" transform="rotate(-0 60.686522 35.628062)">69.2%</text>
   </g>
   <g id="text_13">
    <text style="font-size: 7px; font-family: 'SimSun', 'STSong', 'FangSong', 'SimHei', 'Microsoft YaHei', 'DejaVu Sans', sans-serif; text-anchor: middle; fill: #3a6b6b" x="80.474452" y="143.87955" transform="rotate(-0 80.474452 143.87955)">35.9%</text>
   </g>
   <g id="legend_1">
    <g id="line2d_13">
     <path d="M 205.275 13.128125 
L 209.475 13.128125 
L 213.675 13.128125 
" style="fill: none; stroke: #7a9e9f; stroke-width: 1.2; stroke-linecap: square"/>
     <g>
      <use xlink:href="#m4eb538af62" x="209.475" y="13.128125" style="fill: #7a9e9f; stroke: #7a9e9f"/>
     </g>
    </g>
    <g id="text_14">
     <text style="font-size: 7px; font-family: 'SimSun', 'STSong', 'FangSong', 'SimHei', 'Microsoft YaHei', 'DejaVu Sans', sans-serif; text-anchor: start" x="216.475" y="15.578125" transform="rotate(-0 216.475 15.578125)">实际值</text>
    </g>
    <g id="line2d_14">
     <path d="M 205.275 23.053906 
L 209.475 23.053906 
L 213.675 23.053906 
" style="fill: none; stroke-dasharray: 4.44,1.92; stroke-dashoffset: 0; stroke: #ce7e7e; stroke-width: 1.2"/>
     <g>
      <use xlink:href="#mb4c76cc09a" x="209.475" y="23.053906" style="fill: #ce7e7e; stroke: #ce7e7e; stroke-linejoin: miter"/>
     </g>
    </g>
    <g id="text_15">
     <text style="font-size: 7px; font-family: 'SimSun', 'STSong', 'FangSong', 'SimHei', 'Microsoft YaHei', 'DejaVu Sans', sans-serif; text-anchor: start" x="216.475" y="25.503906" transform="rotate(-0 216.475 25.503906)">要求值</text>
    </g>
   </g>
  </g>
 </g>
 <defs>
  <clipPath id="p948006f71c">
   <path d="M 196.46 107.793 
C 196.46 95.366302 194.012212 83.060438 189.25672 71.579667 
C 184.501229 60.098895 177.530517 49.666488 168.743515 40.879485 
C 159.956512 32.092483 149.524105 25.121771 138.043333 20.36628 
C 126.562562 15.610788 114.256698 13.163 101.83 13.163 
C 89.403302 13.163 77.097438 15.610788 65.616667 20.36628 
C 54.135895 25.121771 43.703488 32.092483 34.916485 40.879485 
C 26.129483 49.666488 19.158771 60.098895 14.40328 71.579667 
C 9.647788 83.060438 7.2 95.366302 7.2 107.793 
C 7.2 120.219698 9.647788 132.525562 14.40328 144.006333 
C 19.158771 155.487105 26.129483 165.919512 34.916485 174.706515 
C 43.703488 183.493517 54.135895 190.464229 65.616667 195.21972 
C 77.097438 199.975212 89.403302 202.423 101.83 202.423 
C 114.256698 202.423 126.562562 199.975212 138.043333 195.21972 
C 149.524105 190.464229 159.956512 183.493517 168.743515 174.706515 
C 177.530517 165.919512 184.501229 155.487105 189.25672 144.006333 
C 194.012212 132.525562 196.46 120.219698 196.46 107.793 
M 101.83 107.793 
C 101.83 107.793 101.83 107.793 101.83 107.793 
C 101.83 107.793 101.83 107.793 101.83 107.793 
C 101.83 107.793 101.83 107.793 101.83 107.793 
C 101.83 107.793 101.83 107.793 101.83 107.793 
C 101.83 107.793 101.83 107.793 101.83 107.793 
C 101.83 107.793 101.83 107.793 101.83 107.793 
C 101.83 107.793 101.83 107.793 101.83 107.793 
C 101.83 107.793 101.83 107.793 101.83 107.793 
C 101.83 107.793 101.83 107.793 101.83 107.793 
C 101.83 107.793 101.83 107.793 101.83 107.793 
C 101.83 107.793 101.83 107.793 101.83 107.793 
C 101.83 107.793 101.83 107.793 101.83 107.793 
C 101.83 107.793 101.83 107.793 101.83 107.793 
C 101.83 107.793 101.83 107.793 101.83 107.793 
C 101.83 107.793 101.83 107.793 101.83 107.793 
C 101.83 107.793 101.83 107.793 101.83 107.793 
z
"/>
  </clipPath>
 </defs>
</svg>
