<?xml version="1.0" encoding="utf-8" standalone="no"?>
<!DOCTYPE svg PUBLIC "-//W3C//DTD SVG 1.1//EN"
  "http://www.w3.org/Graphics/SVG/1.1/DTD/svg11.dtd">
<svg xmlns:xlink="http://www.w3.org/1999/xlink" width="229.816951pt" height="212.04pt" viewBox="0 0 229.816951 212.04" xmlns="http://www.w3.org/2000/svg" version="1.1">
 <metadata>
  <rdf:RDF xmlns:dc="http://purl.org/dc/elements/1.1/" xmlns:cc="http://creativecommons.org/ns#" xmlns:rdf="http://www.w3.org/1999/02/22-rdf-syntax-ns#">
   <cc:Work>
    <dc:type rdf:resource="http://purl.org/dc/dcmitype/StillImage"/>
    <dc:date>2026-05-23T13:11:57.833597</dc:date>
    <dc:format>image/svg+xml</dc:format>
    <dc:creator>
     <cc:Agent>
      <dc:title>Matplotlib v3.10.8, https://matplotlib.org/</dc:title>
     </cc:Agent>
    </dc:creator>
   </cc:Work>
  </rdf:RDF>
 </metadata>
 <defs>
  <style type="text/css">*{stroke-linejoin: round; stroke-linecap: butt}</style>
 </defs>
 <g id="figure_1">
  <g id="patch_1">
   <path d="M 0 212.04 
L 229.816951 212.04 
L 229.816951 0 
L 0 0 
z
" style="fill: #ffffff"/>
  </g>
  <g id="axes_1">
   <g id="patch_2">
    <path d="M 112.574052 25.975566 
C 100.726221 25.975566 89.028549 28.638951 78.348571 33.768197 
C 67.668594 38.897443 58.277025 46.362535 50.870373 55.609837 
C 43.463722 64.857139 38.229729 75.652253 35.556566 87.194579 
C 32.883403 98.736905 32.838828 110.73387 35.426146 122.295741 
L 112.574052 105.031566 
z
" style="fill: #7a9e9f"/>
   </g>
   <g id="patch_3">
    <path d="M 35.47378 124.329309 
C 38.377765 137.30626 44.509599 149.343133 53.299597 159.321628 
C 62.089595 169.300122 73.256848 176.901332 85.763827 181.419058 
L 112.621684 107.06513 
z
" style="fill: #d4b68a"/>
   </g>
   <g id="patch_4">
    <path d="M 87.03212 181.952927 
C 96.93945 185.531615 107.462854 187.094319 117.98259 186.548996 
C 128.502326 186.003674 138.807743 183.361248 148.29194 178.777341 
L 113.889977 107.599 
z
" style="fill: #ce7e7e"/>
   </g>
   <g id="patch_5">
    <path d="M 149.751317 177.551262 
C 160.418549 172.395569 169.79159 164.907229 177.175303 155.641605 
C 184.559015 146.375982 189.76624 135.56794 192.410796 124.019028 
C 195.055351 112.470116 195.070204 100.473048 192.454241 88.917625 
C 189.838279 77.362203 184.657828 66.541302 177.297073 57.257428 
L 115.349354 106.372921 
z
" style="fill: #7fa8c4"/>
   </g>
   <g id="patch_6">
    <path d="M 176.711993 55.645253 
C 172.597232 50.455444 167.846549 45.80323 162.571706 41.798054 
C 157.296863 37.792878 151.539552 34.466396 145.435218 31.896871 
L 114.764274 104.760746 
z
" style="fill: #8faa8f"/>
   </g>
   <g id="patch_7">
    <path d="M 144.791966 31.606275 
C 139.949515 29.567917 134.915901 28.017361 129.765835 26.977626 
C 124.615768 25.937891 119.374856 25.41414 114.120882 25.41415 
L 114.121022 104.47015 
z
" style="fill: #9b8eb5"/>
   </g>
   <g id="matplotlib.axis_1"/>
   <g id="matplotlib.axis_2"/>
   <g id="text_1">
    <text style="font-size: 7.5px; font-family: 'SimSun', 'STSong', 'FangSong', 'SimHei', 'Microsoft YaHei', 'DejaVu Sans', sans-serif; text-anchor: end" x="44.7" y="53.143257" transform="rotate(-0 44.7 53.143257)">自用可再生</text>
   </g>
   <g id="text_2">
    <text style="font-size: 7px; font-family: 'SimSun', 'STSong', 'FangSong', 'SimHei', 'Microsoft YaHei', 'DejaVu Sans', sans-serif; text-anchor: middle" x="75.551842" y="77.429314" transform="rotate(-0 75.551842 77.429314)">28.5%</text>
   </g>
   <g id="text_3">
    <text style="font-size: 7.5px; font-family: 'SimSun', 'STSong', 'FangSong', 'SimHei', 'Microsoft YaHei', 'DejaVu Sans', sans-serif; text-anchor: end" x="47.367406" y="166.920341" transform="rotate(-0 47.367406 166.920341)">上网电量</text>
   </g>
   <g id="text_4">
    <text style="font-size: 7px; font-family: 'SimSun', 'STSong', 'FangSong', 'SimHei', 'Microsoft YaHei', 'DejaVu Sans', sans-serif; text-anchor: middle" x="77.028442" y="140.469819" transform="rotate(-0 77.028442 140.469819)">16.0%</text>
   </g>
   <g id="text_5">
    <text style="font-size: 7.5px; font-family: 'SimSun', 'STSong', 'FangSong', 'SimHei', 'Microsoft YaHei', 'DejaVu Sans', sans-serif; text-anchor: start" x="118.391852" y="196.91958" transform="rotate(-0 118.391852 196.91958)">网购电量</text>
   </g>
   <g id="text_6">
    <text style="font-size: 7px; font-family: 'SimSun', 'STSong', 'FangSong', 'SimHei', 'Microsoft YaHei', 'DejaVu Sans', sans-serif; text-anchor: middle" x="116.345545" y="157.019778" transform="rotate(-0 116.345545 157.019778)">12.7%</text>
   </g>
   <g id="text_7">
    <text style="font-size: 7.5px; font-family: 'SimSun', 'STSong', 'FangSong', 'SimHei', 'Microsoft YaHei', 'DejaVu Sans', sans-serif; text-anchor: start" x="200.116951" y="128.273833" transform="rotate(-0 200.116951 128.273833)">制氢氨</text>
   </g>
   <g id="text_8">
    <text style="font-size: 7px; font-family: 'SimSun', 'STSong', 'FangSong', 'SimHei', 'Microsoft YaHei', 'DejaVu Sans', sans-serif; text-anchor: middle" x="161.586225" y="119.011345" transform="rotate(-0 161.586225 119.011345)">28.5%</text>
   </g>
   <g id="text_9">
    <text style="font-size: 7.5px; font-family: 'SimSun', 'STSong', 'FangSong', 'SimHei', 'Microsoft YaHei', 'DejaVu Sans', sans-serif; text-anchor: start" x="167.352448" y="38.006667" transform="rotate(-0 167.352448 38.006667)">售电(收入)</text>
   </g>
   <g id="text_10">
    <text style="font-size: 7px; font-family: 'SimSun', 'STSong', 'FangSong', 'SimHei', 'Microsoft YaHei', 'DejaVu Sans', sans-serif; text-anchor: middle" x="143.448733" y="69.033912" transform="rotate(-0 143.448733 69.033912)">8.0%</text>
   </g>
   <g id="text_11">
    <text style="font-size: 7.5px; font-family: 'SimSun', 'STSong', 'FangSong', 'SimHei', 'Microsoft YaHei', 'DejaVu Sans', sans-serif; text-anchor: start" x="131.330356" y="21.703969" transform="rotate(-0 131.330356 21.703969)">购电(支出)</text>
   </g>
   <g id="text_12">
    <text style="font-size: 7px; font-family: 'SimSun', 'STSong', 'FangSong', 'SimHei', 'Microsoft YaHei', 'DejaVu Sans', sans-serif; text-anchor: middle" x="123.507932" y="60.025422" transform="rotate(-0 123.507932 60.025422)">6.3%</text>
   </g>
  </g>
 </g>
</svg>
